<svg width="20" height="19" xmlns="http://www.w3.org/2000/svg">
    <path d="M18 4c.58 0 1.05.2 1.42.59.38.41.58.86.58 1.41v11c0 .55-.2 1-.58 1.41-.37.39-.84.59-1.42.59H2c-.58 0-1.05-.2-1.42-.59C.2 18 0 17.55 0 17V6c0-.55.2-1 .58-1.41C.95 4.2 1.42 4 2 4h4V2c0-.58.2-1.05.58-1.42C6.95.2 7.42 0 8 0h4c.58 0 1.05.2 1.42.58.38.37.58.84.58 1.42v2h4M2 6v11h16V6H2m10-2V2H8v2h4m-2 3a2.25 2.25 0 1 1 0 4.5A2.25 2.25 0 0 1 10 7m4.5 9h-9v-1.12c0-1.25 2-2.25 4.5-2.25s4.5 1 4.5 2.25V16Z" fill="#369D9E" fill-rule="nonzero"/>
</svg>
