<svg width="22" height="22" xmlns="http://www.w3.org/2000/svg">
    <path d="M19 10h3v2h-3v-2M0 10h3v2H0v-2M12 0v3h-2V0h2M3.92 2.5l2.13 2.14-1.42 1.41L2.5 3.93 3.92 2.5m12.03 2.13 2.12-2.13 1.43 1.43-2.13 2.12-1.42-1.42M11 5a6 6 0 0 1 6 6c0 2.22-1.21 4.16-3 5.2V18a1 1 0 0 1-1 1H9a1 1 0 0 1-1-1v-1.8c-1.79-1.04-3-2.98-3-5.2a6 6 0 0 1 6-6m2 15v1a1 1 0 0 1-1 1h-2a1 1 0 0 1-1-1v-1h4m-3-3h2v-2.13c1.73-.44 3-2.01 3-3.87a4 4 0 1 0-8 0c0 1.86 1.27 3.43 3 3.87V17Z" fill="#369D9E" fill-rule="nonzero"/>
</svg>
