<svg xmlns="http://www.w3.org/2000/svg" width="16" height="16" viewBox="0 0 16 16"><path fill="#369D9E" d="M5.75714286,0 C8.93672506,0 11.5142857,2.57756065 11.5142857,5.75714286 C11.5142857,7.18314286 10.9917143,8.494 10.1325714,9.50371429 L10.3717143,9.74285714 L11.0714286,9.74285714 L15.5,14.1714286 L14.1714286,15.5 L9.74285714,11.0714286 L9.74285714,10.3717143 L9.50371429,10.1325714 C8.494,10.9917143 7.18314286,11.5142857 5.75714286,11.5142857 C2.57756065,11.5142857 0,8.93672506 0,5.75714286 C0,2.57756065 2.57756065,0 5.75714286,0 M5.75714286,1.77142857 C3.54285714,1.77142857 1.77142857,3.54285714 1.77142857,5.75714286 C1.77142857,7.97142857 3.54285714,9.74285714 5.75714286,9.74285714 C7.97142857,9.74285714 9.74285714,7.97142857 9.74285714,5.75714286 C9.74285714,3.54285714 7.97142857,1.77142857 5.75714286,1.77142857 Z"/></svg>