<svg width="24" height="15" xmlns="http://www.w3.org/2000/svg">
    <path d="M12 0a3.5 3.5 0 1 1 0 7 3.5 3.5 0 0 1 0-7M5 2.5c.56 0 1.08.15 1.53.42-.15 1.43.27 2.85 1.13 3.96A2.997 2.997 0 0 1 2 5.5a3 3 0 0 1 3-3m14 0a3 3 0 0 1 0 6c-1.16 0-2.16-.66-2.66-1.62a5.536 5.536 0 0 0 1.13-3.96c.45-.27.97-.42 1.53-.42M5.5 12.75C5.5 10.68 8.41 9 12 9s6.5 1.68 6.5 3.75v1.75h-13v-1.75M0 14.5V13c0-1.39 1.89-2.56 4.45-2.9-.59.68-.95 1.62-.95 2.65v1.75H0m24 0h-3.5v-1.75c0-1.03-.36-1.97-.95-2.65 2.56.34 4.45 1.51 4.45 2.9v1.5Z" fill="#369D9E" fill-rule="nonzero"/>
</svg>
